<svg width="24" height="24" viewBox="0 0 24 24" fill="none" xmlns="http://www.w3.org/2000/svg">
<path d="M7.07845 15.4241C7.07845 16.2193 7.73755 16.864 8.53275 16.864C9.32222 16.864 9.97875 16.2282 9.98669 15.4387C9.99468 14.6436 9.34212 13.9924 8.54693 13.9845C7.74623 13.9766 7.07845 14.6234 7.07845 15.4241Z" fill="#0D0D0D"/>
<path d="M13.5609 13.2755L15.0078 11.8285M10.667 10.3815L13.5609 7.48763M8.54693 13.9845C7.74623 13.9766 7.07845 14.6234 7.07845 15.4241C7.07845 16.2193 7.73755 16.864 8.53275 16.864C9.32222 16.864 9.97875 16.2282 9.98669 15.4387C9.99468 14.6436 9.34212 13.9924 8.54693 13.9845ZM3.89907 11.4192L11.4192 3.89902C12.6179 2.70033 14.5614 2.70033 15.7601 3.89902L20.101 8.2399C21.2997 9.43859 21.2997 11.3821 20.101 12.5808L12.5808 20.1009C11.8551 20.8266 10.8148 21.1416 9.80841 20.9403L6.19102 20.2169C4.97594 19.9738 4.02615 19.0241 3.78314 17.809L3.05966 14.1916C2.85839 13.1852 3.17338 12.1449 3.89907 11.4192Z" stroke="#0D0D0D" stroke-width="1.5" stroke-linecap="round"/>
</svg>
