<svg width="25" height="24" viewBox="0 0 25 24" fill="none" xmlns="http://www.w3.org/2000/svg">
<path d="M7.33333 10L6.60583 10.7275C5.88139 11.4519 4.72809 11.5158 3.92809 10.8758V10.8758C3.27031 10.3496 3.01029 9.46911 3.27667 8.66997L4.14956 6.05132C4.5579 4.82629 5.70431 4 6.99561 4H8.33333M7.33333 10L8.28984 10.5739C9.23989 11.1439 10.4268 11.1439 11.3768 10.5739L12.3333 10M7.33333 10L8.33333 4M12.3333 10L13.2898 10.5739C14.2399 11.1439 15.4268 11.1439 16.3768 10.5739L17.3333 10M12.3333 10V4M17.3333 10L18.0608 10.7275C18.7853 11.4519 19.9386 11.5158 20.7386 10.8758V10.8758C21.3963 10.3496 21.6564 9.46911 21.39 8.66997L20.5171 6.05132C20.1088 4.82629 18.9623 4 17.6711 4H16.3333M17.3333 10L16.3333 4M8.33333 4H12.3333M16.3333 4H12.3333M4.83333 11.6V17C4.83333 18.6569 6.17647 20 7.83333 20H16.8333C18.4902 20 19.8333 18.6569 19.8333 17V11.6" stroke="#0D0D0D" stroke-width="1.5"/>
</svg>
