<svg width="18" height="20" viewBox="0 0 18 20" fill="none" xmlns="http://www.w3.org/2000/svg">
<path d="M3.60615 14.8978V3.63617C3.60615 2.57303 4.468 1.71118 5.53114 1.71118H16.7385C17.039 1.71118 17.1019 2.13516 16.8144 2.22244C15.6034 2.5901 14.7754 3.70675 14.7754 4.97239V16.0548C14.7754 17.2885 13.7753 18.2887 12.5415 18.2887M3.60615 14.8978H1.06241C1.02794 14.8978 1 14.9258 1 14.9602V16.6133C1 17.5386 1.7501 18.2887 2.67538 18.2887H12.5415M3.60615 14.8978H10.791C10.7919 14.8978 10.7927 14.8982 10.7934 14.8988V14.8988C10.794 14.8994 10.7943 14.9002 10.7943 14.9011V16.5415C10.7943 17.5064 11.5766 18.2887 12.5415 18.2887M6 5.21118H11.5004M6 8.21118H8.5M6 11.2112H10" stroke="#0D0D0D" stroke-width="1.5" stroke-linecap="round"/>
</svg>
