<svg width="24" height="24" viewBox="0 0 24 24" fill="none" xmlns="http://www.w3.org/2000/svg">
<path d="M3 3V9M3 21V17.4444M21 3V9M21 21V17.4444M21 9V17.4444M21 9H12.5M3 9V17.4444M3 9H6M21 17.4444H18M3 17.4444L12 17.5M18 17.4444V14.5C18 13.9477 17.5523 13.5 17 13.5H13C12.4477 13.5 12 13.9477 12 14.5V17.5M18 17.4444L12 17.5M6 9V5.5C6 4.94772 6.44772 4.5 7 4.5H9.25H11.5C12.0523 4.5 12.5 4.94772 12.5 5.5V9M6 9H12.5" stroke="#0D0D0D" stroke-width="1.5" stroke-linecap="round" stroke-linejoin="round"/>
</svg>
