<?xml version="1.0" encoding="UTF-8"?>
<svg version="1.1" xmlns="http://www.w3.org/2000/svg" width="140" height="140">
<path d="M0 0 C1.1149585 -0.00430527 1.1149585 -0.00430527 2.25244141 -0.00869751 C3.8225989 -0.01073726 5.39278186 -0.0052135 6.96289062 0.00732422 C9.36646332 0.02338047 11.76835461 0.00747398 14.171875 -0.01171875 C15.69792038 -0.0097363 17.22396471 -0.00589259 18.75 0 C19.46881348 -0.00607269 20.18762695 -0.01214539 20.92822266 -0.0184021 C25.84424767 0.0509011 25.84424767 0.0509011 28.2265625 1.61083984 C29.61297592 3.76885834 30.44761162 6.01230891 31.375 8.3984375 C32.18266312 8.40430374 32.99032623 8.41016998 33.82246399 8.41621399 C41.42998578 8.47409218 49.03717823 8.54614022 56.64440632 8.63415241 C60.55547848 8.67890065 64.46644541 8.71814661 68.37768555 8.74487305 C72.15152088 8.77086211 75.92495219 8.8112324 79.69853783 8.86162376 C81.13899909 8.87832244 82.57953028 8.88981803 84.02007484 8.89605141 C86.03603774 8.90565898 88.05187441 8.93539852 90.06762695 8.96606445 C91.21568314 8.97716751 92.36373932 8.98827057 93.54658508 8.99971008 C96.375 9.3984375 96.375 9.3984375 98.25090027 10.77043152 C99.84952831 13.08568518 99.67075413 14.80741483 99.5625 17.5859375 C99.52189453 18.93751953 99.52189453 18.93751953 99.48046875 20.31640625 C99.44566406 21.00347656 99.41085938 21.69054687 99.375 22.3984375 C100.86 22.8934375 100.86 22.8934375 102.375 23.3984375 C104.93281522 27.23516033 104.62806456 30.34379737 104.5703125 34.78515625 C104.5674826 35.60216507 104.56465271 36.41917389 104.56173706 37.26094055 C104.55054541 39.86942209 104.5254429 42.4775598 104.5 45.0859375 C104.48996888 46.85481275 104.48084326 48.62369338 104.47265625 50.39257812 C104.45060942 54.72799699 104.4160867 59.06315895 104.375 63.3984375 C104.99971191 63.70225342 105.62442383 64.00606934 106.26806641 64.3190918 C113.26480612 67.90340075 117.2545993 74.57583586 120.265625 81.6015625 C123.33028811 92.09047992 122.64698757 103.09950718 117.78515625 112.91796875 C117.31980469 113.73652344 116.85445313 114.55507812 116.375 115.3984375 C116.00246094 116.08292969 115.62992187 116.76742187 115.24609375 117.47265625 C112.06695973 122.57920951 107.50682166 125.44039412 102.375 128.3984375 C101.74335937 128.81480469 101.11171875 129.23117188 100.4609375 129.66015625 C92.11052131 134.40093038 80.04229211 133.87232475 70.98046875 131.515625 C61.00943081 127.3040817 52.93054969 119.50050103 48.25097656 109.76196289 C47.28714348 107.16138652 46.9873063 104.88836607 46.76171875 102.12890625 C46.68526123 101.23969482 46.60880371 100.3504834 46.5300293 99.43432617 C46.47886963 98.76248291 46.42770996 98.09063965 46.375 97.3984375 C45.70514572 97.40509933 45.03529144 97.41176117 44.34513855 97.41862488 C37.38630971 97.4848889 30.42757019 97.53020098 23.46850586 97.56323242 C20.86983603 97.57833813 18.27119177 97.59882384 15.67260742 97.62475586 C11.94183042 97.66105993 8.21138987 97.67814608 4.48046875 97.69140625 C2.73191841 97.71463203 2.73191841 97.71463203 0.94804382 97.73832703 C-0.13285019 97.73855362 -1.2137442 97.73878021 -2.32739258 97.73901367 C-3.28003494 97.74567551 -4.23267731 97.75233734 -5.21418762 97.75920105 C-8.12513587 97.32359518 -8.81269174 96.66150085 -10.625 94.3984375 C-10.9213207 91.4462924 -11.03465034 88.70512557 -11.01318359 85.75195312 C-11.01844055 84.868759 -11.02369751 83.98556488 -11.02911377 83.0756073 C-11.04233389 80.15178827 -11.03356856 77.22851222 -11.0234375 74.3046875 C-11.02545766 72.27591853 -11.0283686 70.24715027 -11.03213501 68.21838379 C-11.03656109 63.9646921 -11.03011811 59.71118929 -11.01611328 55.45751953 C-10.99902131 49.99958513 -11.00886096 44.54209327 -11.02683067 39.08417511 C-11.03766079 34.89435479 -11.0342257 30.70463974 -11.0264473 26.51481628 C-11.02444316 24.50213061 -11.02691204 22.48943545 -11.03388596 20.47676086 C-11.04148769 17.66588959 -11.02991417 14.85573932 -11.01318359 12.04492188 C-11.01925629 11.20950363 -11.02532898 10.37408539 -11.03158569 9.51335144 C-10.96897726 3.84807126 -10.96897726 3.84807126 -9.31456947 1.68549347 C-6.53423625 -0.43246885 -3.35565135 -0.02834927 0 0 Z M-5.625 7.3984375 C-5.82343614 10.03786236 -5.89774882 12.57236088 -5.88378906 15.21289062 C-5.8872937 16.01951645 -5.89079834 16.82614227 -5.89440918 17.6572113 C-5.90323313 20.33145682 -5.89737505 23.00543916 -5.890625 25.6796875 C-5.89197146 27.53291881 -5.89391183 29.38614978 -5.89642334 31.23937988 C-5.8993755 35.12658038 -5.89507401 39.01368907 -5.88574219 42.90087891 C-5.8743476 47.89140378 -5.88090658 52.88171355 -5.89288712 57.87223053 C-5.90010324 61.6999881 -5.89781893 65.52769441 -5.89263153 69.35545349 C-5.89129435 71.19591802 -5.89294515 73.03638716 -5.89759064 74.87684631 C-5.90265182 77.44601832 -5.89495152 80.01483866 -5.88378906 82.58398438 C-5.88783752 83.34976303 -5.89188599 84.11554169 -5.89605713 84.90452576 C-6.00477694 89.10988014 -6.00477694 89.10988014 -3.625 92.3984375 C-0.04156024 92.56521032 -0.04156024 92.56521032 3.375 92.3984375 C3.37055878 91.61805115 3.36611755 90.83766479 3.36154175 90.03363037 C3.32145647 82.67681156 3.29101127 75.32004576 3.27137566 67.96314621 C3.26094142 64.18094979 3.24678884 60.39884367 3.22412109 56.61669922 C3.20237979 52.96626142 3.19042866 49.31591045 3.18524551 45.6654129 C3.18155206 44.27316166 3.17433966 42.88091512 3.16353989 41.48870087 C3.14900874 39.53776183 3.14818294 37.58673532 3.14794922 35.63574219 C3.143508 34.5254364 3.13906677 33.41513062 3.13449097 32.2711792 C3.37640734 29.38162769 3.76197618 27.78388522 5.375 25.3984375 C9.1646078 22.8720323 12.21702838 23.0915512 16.61010742 23.07958984 C17.44935257 23.06954422 18.28859772 23.0594986 19.15327454 23.04914856 C21.92899893 23.0182424 24.70462656 23.00126083 27.48046875 22.984375 C29.40433082 22.96566933 31.32818464 22.94609637 33.25202942 22.9256897 C38.31707906 22.87429903 43.38215532 22.83471044 48.44732666 22.79754639 C53.61534243 22.75755018 58.78324681 22.70643787 63.95117188 22.65625 C74.09236974 22.55940862 84.23363041 22.47503013 94.375 22.3984375 C94.58470559 18.25750052 94.58470559 18.25750052 93.375 14.3984375 C92.56733688 14.39035065 91.75967377 14.38226379 90.92753601 14.37393188 C83.32008016 14.29602604 75.71281722 14.20874773 68.10559368 14.11091042 C64.19453677 14.06094135 60.28350694 14.0146115 56.37231445 13.9765625 C52.59855715 13.93971719 48.82502617 13.89335957 45.05146217 13.84037399 C43.61099017 13.82182597 42.17046965 13.80671949 40.72992516 13.79509354 C38.71397807 13.77823885 36.69815556 13.74806856 34.68237305 13.71728516 C33.53431686 13.70396149 32.38626068 13.69063782 31.20341492 13.6769104 C28.375 13.3984375 28.375 13.3984375 25.375 11.3984375 C24.65340576 9.75480616 23.98148579 8.08793364 23.375 6.3984375 C20.72959403 3.75303153 13.00095815 5.21281597 9.4375 5.2109375 C8.21869141 5.19869141 6.99988281 5.18644531 5.74414062 5.17382812 C4.58205078 5.17189453 3.41996094 5.16996094 2.22265625 5.16796875 C1.15023682 5.16385986 0.07781738 5.15975098 -1.02709961 5.15551758 C-3.78685604 5.13482427 -3.78685604 5.13482427 -5.625 7.3984375 Z M9.375 29.3984375 C7.4677845 32.78507177 7.12315962 35.72617835 7.11621094 39.56835938 C7.10990662 40.57290161 7.10360229 41.57744385 7.09710693 42.61242676 C7.1011554 43.6864978 7.10520386 44.76056885 7.109375 45.8671875 C7.10746155 46.98025269 7.1055481 48.09331787 7.10357666 49.2401123 C7.10221744 51.59025295 7.10589552 53.94040118 7.11425781 56.29052734 C7.12496077 59.8852629 7.11435335 63.47949871 7.1015625 67.07421875 C7.10288414 69.3593761 7.10544663 71.64453314 7.109375 73.9296875 C7.10532654 75.00375854 7.10127808 76.07782959 7.09710693 77.18444824 C7.10341125 78.18899048 7.10971558 79.19353271 7.11621094 80.22851562 C7.11780212 81.10834106 7.11939331 81.9881665 7.12103271 82.89465332 C7.40855706 85.72926607 8.1121776 87.84922814 9.375 90.3984375 C13.37612575 92.81043475 17.28154181 92.63025788 21.86328125 92.59375 C22.56647995 92.5909201 23.26967865 92.58809021 23.9941864 92.58517456 C26.22546892 92.57403901 28.45634017 92.54894747 30.6875 92.5234375 C32.20637438 92.5133991 33.7252551 92.50427476 35.24414062 92.49609375 C38.95455921 92.47412163 42.66473942 92.43963797 46.375 92.3984375 C46.49109619 91.739646 46.60719238 91.08085449 46.72680664 90.40209961 C47.61871323 85.61057189 48.52031804 81.30965655 50.8125 76.9609375 C51.42931641 75.75630859 51.42931641 75.75630859 52.05859375 74.52734375 C53.31857881 72.48968246 54.69365096 71.07978654 56.375 69.3984375 C56.375 68.7384375 56.375 68.0784375 56.375 67.3984375 C56.890625 67.1509375 57.40625 66.9034375 57.9375 66.6484375 C60.45207164 65.35891358 62.87586316 63.94634743 65.30078125 62.49609375 C71.91857347 58.99402292 76.54037382 57.96194685 84 58.1484375 C85.24910156 58.15617187 85.24910156 58.15617187 86.5234375 58.1640625 C90.70932391 58.21738589 94.21142457 58.56572241 98.375 59.3984375 C98.375 49.1684375 98.375 38.9384375 98.375 28.3984375 C95.30077797 26.86132648 92.07341475 27.25114007 88.69995117 27.25317383 C87.9078978 27.24981522 87.11584442 27.2464566 86.29978943 27.24299622 C83.67250005 27.2334713 81.04527433 27.23154218 78.41796875 27.23046875 C76.59434482 27.22725669 74.77072116 27.22389266 72.94709778 27.22038269 C69.11959231 27.21438718 65.29210944 27.21254317 61.46459961 27.21313477 C56.56182313 27.21323629 51.6591918 27.19959632 46.7564497 27.18236256 C42.98777096 27.17123799 39.21912721 27.16921572 35.45043373 27.16974449 C33.64314589 27.1685646 31.83585713 27.16414227 30.02858543 27.15641212 C27.49836486 27.14660525 24.96845815 27.14949327 22.43823242 27.15551758 C21.31976929 27.14708832 21.31976929 27.14708832 20.17871094 27.13848877 C16.17422249 27.16269359 12.83617976 27.28144197 9.375 29.3984375 Z M67.375 66.3984375 C67.375 67.0584375 67.375 67.7184375 67.375 68.3984375 C66.5396875 68.73875 66.5396875 68.73875 65.6875 69.0859375 C61.69061114 71.35444199 58.83533351 74.01743696 57.375 78.3984375 C56.715 78.3984375 56.055 78.3984375 55.375 78.3984375 C51.80732997 86.87165382 50.69636409 96.11709024 53.1015625 105.1171875 C54.04120416 107.34788152 55.10604529 109.33953748 56.375 111.3984375 C56.70242187 112.00945312 57.02984375 112.62046875 57.3671875 113.25 C61.02062823 119.30351129 67.66508669 123.71493543 74.265625 126.07421875 C83.22990834 127.4520623 92.64300176 127.56323004 100.375 122.3984375 C107.59837085 117.08287862 112.98402151 111.15131472 115.375 102.3984375 C116.33951329 90.89943495 115.36655568 82.37097553 108.1796875 73.2890625 C102.64437263 67.49016121 95.84439385 63.77703302 87.82421875 63.09765625 C80.32419123 63.07429168 74.31071522 63.47813636 67.375 66.3984375 Z " fill="#000000" transform="translate(14.625,3.6015625)"/>
<path d="M0 0 C2.97922593 -0.02683987 5.95821295 -0.04676037 8.9375 -0.0625 C9.78763672 -0.07087891 10.63777344 -0.07925781 11.51367188 -0.08789062 C12.32255859 -0.09111328 13.13144531 -0.09433594 13.96484375 -0.09765625 C14.7137085 -0.10289307 15.46257324 -0.10812988 16.23413086 -0.11352539 C18 0 18 0 19 1 C18.94975443 7.94645073 17.7725151 14.81488738 16.5 21.625 C16.36948242 22.32375244 16.23896484 23.02250488 16.10449219 23.74243164 C15.13473928 28.73052144 15.13473928 28.73052144 14 31 C11.03 31 8.06 31 5 31 C2.25208924 20.83273018 -0.20544264 10.5881976 0 0 Z M7 5 C7.69686386 15.03349277 7.69686386 15.03349277 9 25 C9.33 25 9.66 25 10 25 C10.33868777 22.79248152 10.67071689 20.58394089 11 18.375 C11.185625 17.14523438 11.37125 15.91546875 11.5625 14.6484375 C11.95402516 11.3833973 12.08080924 8.28287549 12 5 C10.35 5 8.7 5 7 5 Z " fill="#000000" transform="translate(89,74)"/>
<path d="M0 0 C1.875 0.30859375 1.875 0.30859375 3.875 1.30859375 C5.50432095 4.56723565 5.40173518 7.74756719 4.875 11.30859375 C3.8125 13.30859375 3.8125 13.30859375 1.875 14.30859375 C-2.05594707 14.8088961 -4.2255787 14.90820795 -7.5625 12.68359375 C-9.58432313 9.6104226 -9.65255517 7.92611494 -9.125 4.30859375 C-7.22735706 -0.19830824 -4.46860694 -0.27107358 0 0 Z M-3.125 6.30859375 C-3.125 6.96859375 -3.125 7.62859375 -3.125 8.30859375 C-2.135 8.30859375 -1.145 8.30859375 -0.125 8.30859375 C-0.125 7.64859375 -0.125 6.98859375 -0.125 6.30859375 C-1.115 6.30859375 -2.105 6.30859375 -3.125 6.30859375 Z " fill="#000000" transform="translate(100.125,108.69140625)"/>
<path d="M0 0 C3.96 0 7.92 0 12 0 C12 1.65 12 3.3 12 5 C9.69 5 7.38 5 5 5 C5 6.98 5 8.96 5 11 C3.35 11 1.7 11 0 11 C0 7.37 0 3.74 0 0 Z " fill="#000000" transform="translate(26,35)"/>
<path d="M0 0 C1.65 0 3.3 0 5 0 C5 1.65 5 3.3 5 5 C3.35 5 1.7 5 0 5 C0 3.35 0 1.7 0 0 Z " fill="#000000" transform="translate(26,50)"/>
</svg>
