<svg width="21" height="20" viewBox="0 0 21 20" fill="none" xmlns="http://www.w3.org/2000/svg">
<path d="M10.4998 16.2222V12.7222V10.9722V9.22222M10.4998 9.22222L3.88871 6.5M10.4998 9.22222L17.1109 6.5M6.99982 4.55556L10.4998 6.11111L14.0795 7.74823M6.99982 4.55556L9.55216 3.42118C10.1555 3.15304 10.8442 3.15304 11.4475 3.42118L16.1141 5.49525C16.9568 5.86976 17.4998 6.70537 17.4998 7.62748V12.3725C17.4998 13.2946 16.9568 14.1302 16.1141 14.5047L11.4475 16.5788C10.8442 16.847 10.1555 16.847 9.55216 16.5788L4.88549 14.5047C4.04286 14.1302 3.49982 13.2946 3.49982 12.3725V7.62748C3.49982 6.70537 4.04286 5.86976 4.88549 5.49525L6.99982 4.55556ZM13.9998 10V8.05556" stroke="#B73603" stroke-width="1.25" stroke-linecap="round" stroke-linejoin="round"/>
</svg>
