<svg width="16" height="16" viewBox="0 0 16 16" fill="none" xmlns="http://www.w3.org/2000/svg">
<path d="M7.45833 10.8389C7.45833 10.577 7.35688 10.5969 7.17629 10.4117C6.9957 10.2265 6.75076 10.123 6.49537 10.123L4.56944 10.1224C4.31405 10.1224 4.06912 10.2265 3.88853 10.4117C3.70794 10.5969 3.60648 10.577 3.60648 10.8389" fill="#104BFC"/>
<path d="M5.53241 8.30867C6.06424 8.30867 6.49537 7.86648 6.49537 7.32102C6.49537 6.77555 6.06424 6.33336 5.53241 6.33336C5.00058 6.33336 4.56944 6.77555 4.56944 7.32102C4.56944 7.86648 5.00058 8.30867 5.53241 8.30867Z" fill="#104BFC"/>
<path d="M9.625 6.33336H12.3333M9.625 8.55559H12.3333M9.625 10.7778H12.3333M5.83333 4.11114H2.58333C1.98502 4.11114 1.5 4.6086 1.5 5.22225V11.8889C1.5 12.5026 1.98502 13 2.58333 13H13.4167C14.015 13 14.5 12.5026 14.5 11.8889V5.22225C14.5 4.6086 14.015 4.11114 13.4167 4.11114H10.1667M5.83333 4.11114L6.10112 3.56183C6.26869 3.2181 6.61761 3.00003 7 3.00003H9C9.3824 3.00003 9.73131 3.2181 9.89888 3.56183L10.1667 4.11114M5.83333 4.11114H10.1667M7.45833 10.8389C7.45833 10.577 7.35688 10.5969 7.17629 10.4117C6.9957 10.2265 6.75076 10.123 6.49537 10.123L4.56944 10.1224C4.31405 10.1224 4.06912 10.2265 3.88853 10.4117C3.70794 10.5969 3.60648 10.577 3.60648 10.8389H7.45833ZM6.49537 7.32102C6.49537 7.86648 6.06424 8.30867 5.53241 8.30867C5.00058 8.30867 4.56944 7.86648 4.56944 7.32102C4.56944 6.77555 5.00058 6.33336 5.53241 6.33336C6.06424 6.33336 6.49537 6.77555 6.49537 7.32102Z" stroke="#104BFC" stroke-width="1.25" stroke-linecap="round" stroke-linejoin="round"/>
</svg>
