<svg width="20" height="19" viewBox="0 0 20 19" fill="none" xmlns="http://www.w3.org/2000/svg">
<path d="M6.83327 5.69941C7.18305 6.04919 7.18305 6.6163 6.83327 6.96608C6.48349 7.31586 5.91638 7.31586 5.5666 6.96608C5.21682 6.6163 5.21682 6.04919 5.5666 5.69941C5.91638 5.34963 6.48349 5.34963 6.83327 5.69941Z" fill="#E5E5E5"/>
<path d="M1.7666 14.5661V4.43275C1.7666 3.03363 2.90081 1.89941 4.29993 1.89941H15.6999C17.0991 1.89941 18.2333 3.03363 18.2333 4.43275V11.3994M1.7666 14.5661L5.70131 11.5058C6.7098 10.7214 8.14652 10.8127 9.04993 11.7161M1.7666 14.5661C1.7666 15.9652 2.90081 17.0994 4.29993 17.0994H15.6999C17.0991 17.0994 18.2333 15.9652 18.2333 14.5661V11.3994M9.04993 11.7161L11.4777 14.1439M9.04993 11.7161L12.6714 8.94672C13.68 8.17544 15.1038 8.26994 16.0016 9.16776L18.2333 11.3994M6.83327 6.96608C7.18305 6.6163 7.18305 6.04919 6.83327 5.69941C6.48349 5.34963 5.91638 5.34963 5.5666 5.69941C5.21682 6.04919 5.21682 6.6163 5.5666 6.96608C5.91638 7.31586 6.48349 7.31586 6.83327 6.96608Z" stroke="#E5E5E5" stroke-width="2" stroke-linecap="round"/>
</svg>
