<svg width="21" height="20" viewBox="0 0 21 20" fill="none" xmlns="http://www.w3.org/2000/svg">
<path d="M8.05945 7.94861C7.70326 7.59241 7.11926 7.59889 6.76306 7.95509C6.40943 8.30872 6.40013 8.8876 6.7502 9.24477C7.10282 9.60455 7.68682 9.60394 8.04653 9.25125C8.40873 8.89612 8.41814 8.30729 8.05945 7.94861Z" fill="#EC9A00"/>
<path d="M15.5554 8.44444V3M15.5554 8.44444L13.6109 6.11111M15.5554 8.44444L17.4998 6.11111M6.1182 11.8148L6.1182 13.1111M8.7108 11.8148V14.4074M8.04653 9.25125C8.40873 8.89612 8.41814 8.30729 8.05945 7.94861C7.70326 7.59241 7.11926 7.59889 6.76306 7.95509C6.40943 8.30872 6.40013 8.8876 6.7502 9.24477C7.10282 9.60455 7.68682 9.60394 8.04653 9.25125ZM11.2776 8.31841V15.0556C11.2776 16.1294 10.407 17 9.33315 17H5.44426C4.37037 17 3.49982 16.1294 3.49982 15.0556V8.31841C3.49982 7.66828 3.82474 7.06116 4.36568 6.70054L6.31012 5.40424C6.96326 4.96882 7.81415 4.96882 8.46729 5.40424L10.4117 6.70054C10.9527 7.06117 11.2776 7.66828 11.2776 8.31841Z" stroke="#EC9A00" stroke-width="1.25" stroke-linecap="round" stroke-linejoin="round"/>
</svg>
