<svg width="18" height="18" viewBox="0 0 18 18" fill="none" xmlns="http://www.w3.org/2000/svg">
<path d="M11.1267 11.8356C10.7352 11.8356 10.4178 11.5182 10.4178 11.1267C10.4178 10.7352 10.7352 10.4178 11.1267 10.4178C11.5182 10.4178 11.8356 10.7352 11.8356 11.1267C11.8356 11.5182 11.5182 11.8356 11.1267 11.8356Z" fill="#1A1A1A"/>
<path d="M6.87331 6.16442C7.26483 6.16442 7.58221 6.4818 7.58221 6.87331C7.58221 7.26483 7.26483 7.58221 6.87331 7.58221C6.4818 7.58221 6.16442 7.26483 6.16442 6.87331C6.16442 6.4818 6.4818 6.16442 6.87331 6.16442Z" fill="#1A1A1A"/>
<path d="M11.1267 6.87331L6.87331 11.1267M5.56276 2.92375H5.50169C4.07793 2.92375 2.92375 4.07793 2.92375 5.50169V5.56275C2.92375 6.20736 2.66768 6.82557 2.21188 7.28138C1.26271 8.23055 1.26271 9.76945 2.21188 10.7186C2.66768 11.1744 2.92375 11.7926 2.92375 12.4372V12.4983C2.92375 13.9221 4.07793 15.0762 5.50169 15.0762H5.56275C6.20736 15.0762 6.82557 15.3323 7.28138 15.7881C8.23055 16.7373 9.76945 16.7373 10.7186 15.7881C11.1744 15.3323 11.7926 15.0762 12.4372 15.0762H12.4983C13.9221 15.0762 15.0762 13.9221 15.0762 12.4983V12.4372C15.0762 11.7926 15.3323 11.1744 15.7881 10.7186C16.7373 9.76945 16.7373 8.23055 15.7881 7.28138C15.3323 6.82557 15.0762 6.20736 15.0762 5.56276V5.50169C15.0762 4.07793 13.9221 2.92375 12.4983 2.92375H12.4372C11.7926 2.92375 11.1744 2.66768 10.7186 2.21188C9.76945 1.26271 8.23055 1.26271 7.28138 2.21188C6.82557 2.66768 6.20736 2.92375 5.56276 2.92375ZM10.4178 11.1267C10.4178 11.5182 10.7352 11.8356 11.1267 11.8356C11.5182 11.8356 11.8356 11.5182 11.8356 11.1267C11.8356 10.7352 11.5182 10.4178 11.1267 10.4178C10.7352 10.4178 10.4178 10.7352 10.4178 11.1267ZM7.58221 6.87331C7.58221 6.4818 7.26483 6.16442 6.87331 6.16442C6.4818 6.16442 6.16442 6.4818 6.16442 6.87331C6.16442 7.26483 6.4818 7.58221 6.87331 7.58221C7.26483 7.58221 7.58221 7.26483 7.58221 6.87331Z" stroke="#1A1A1A" stroke-width="1.75" stroke-linecap="round" stroke-linejoin="round"/>
</svg>
