<svg width="24" height="24" viewBox="0 0 24 24" fill="none" xmlns="http://www.w3.org/2000/svg">
<path d="M6 6L8 8M8 8L10 10M8 8L10 6M8 8L6 10M3 6V18C3 19.6569 4.34315 21 6 21H18C19.6569 21 21 19.6569 21 18V6C21 4.34315 19.6569 3 18 3H6C4.34315 3 3 4.34315 3 6ZM15.5842 6.22374L13.7192 9.24338C13.5177 9.56952 13.741 10 14.1116 10H17.8417C18.2123 10 18.4355 9.56952 18.2341 9.24338L16.3733 6.22374C16.189 5.92542 15.7685 5.92542 15.5842 6.22374ZM6 14.4444V17.5556C6 17.801 6.19898 18 6.44444 18H9.55555C9.80101 18 10 17.801 10 17.5556V14.4444C10 14.199 9.80101 14 9.55555 14H6.44444C6.19898 14 6 14.199 6 14.4444ZM18.23 16C18.23 14.7574 17.2226 13.75 15.98 13.75C14.7373 13.75 13.73 14.7574 13.73 16C13.73 17.2426 14.7373 18.25 15.98 18.25C17.2226 18.25 18.23 17.2426 18.23 16Z" stroke="#0D0D0D" stroke-width="1.5" stroke-linecap="round"/>
</svg>
