<svg width="25" height="24" viewBox="0 0 25 24" fill="none" xmlns="http://www.w3.org/2000/svg">
<path d="M14.3333 12H18.3333C19.4379 12 20.3333 12.8954 20.3333 14V21H14.3333M14.3333 12V21M14.3333 12V5C14.3333 3.89543 13.4379 3 12.3333 3H6.33333C5.22876 3 4.33333 3.89543 4.33333 5V21H7.33333M14.3333 21H11.3333M7.33333 6.5H11.3333M7.33333 9.5H11.3333M7.33333 12.5H11.3333M7.33333 21V17C7.33333 16.4477 7.78104 16 8.33333 16H10.3333C10.8856 16 11.3333 16.4477 11.3333 17V21M7.33333 21H11.3333" stroke="#0D0D0D" stroke-width="1.5" stroke-linecap="round" stroke-linejoin="round"/>
</svg>
