<svg xmlns="http://www.w3.org/2000/svg" width="155" height="40" viewBox="0 0 155 40" fill="none">
    <path d="M80 20C80 25.057 75.9005 29.1565 70.8435 29.1565C65.7865 29.1565 61.687 25.057 61.687 20C61.687 14.943 65.7865 10.8435 70.8435 10.8435C75.9005 10.8435 80 14.943 80 20Z" fill="#34A853"/>
    <path d="M74.3658 20.0006C74.3658 21.9456 72.7891 23.5223 70.8441 23.5223C68.8991 23.5223 67.3223 21.9456 67.3223 20.0006C67.3223 18.0556 68.8991 16.4788 70.8441 16.4788C72.7891 16.4788 74.3658 18.0556 74.3658 20.0006Z" fill="#A1E6B3"/>
    <path d="M40.3235 20C40.3235 25.057 36.224 29.1565 31.167 29.1565C26.11 29.1565 22.0104 25.057 22.0104 20C22.0104 14.943 26.11 10.8435 31.167 10.8435C36.224 10.8435 40.3235 14.943 40.3235 20Z" fill="#FABB05"/>
    <path d="M34.6894 20.0006C34.6894 21.9456 33.1126 23.5223 31.1676 23.5223C29.2226 23.5223 27.6459 21.9456 27.6459 20.0006C27.6459 18.0556 29.2226 16.4788 31.1676 16.4788C33.1126 16.4788 34.6894 18.0556 34.6894 20.0006Z" fill="#FADB82"/>
    <path d="M44.1959 11.1936H51.2394V28.8023H44.1959V11.1936Z" fill="#4285F4"/>
    <path d="M44.1959 28.8039V21.7604H58.2829V28.8039H44.1959Z" fill="#4285F4"/>
    <path fill-rule="evenodd" clip-rule="evenodd" d="M44.1959 21.7582V28.8017H51.2394V21.7582H44.1959Z" fill="#73A3F4"/>
    <path d="M10.125 28.8039L-3.2057e-05 11.1952L20.25 11.1952L10.125 28.8039Z" fill="#E94235"/>
    <path d="M6.51459 11.1956H13.7342V28.8043H6.51459V11.1956Z" fill="#E94235"/>
    <path fill-rule="evenodd" clip-rule="evenodd" d="M6.51459 22.5264L10.1244 28.8043L13.7342 22.5264V11.1956H6.51459V22.5264Z" fill="#E96E64"/>
    <path d="M88 28.46V11.18H94.811C95.91 11.18 96.8326 11.404 97.5787 11.852C98.3247 12.3 98.8863 12.88 99.2633 13.592C99.6404 14.296 99.8289 15.04 99.8289 15.824C99.8289 16.776 99.5923 17.592 99.1189 18.272C98.6536 18.952 98.0239 19.416 97.2297 19.664L97.2056 19.076C98.3127 19.348 99.1631 19.88 99.7567 20.672C100.35 21.456 100.647 22.372 100.647 23.42C100.647 24.436 100.443 25.32 100.033 26.072C99.6324 26.824 99.0427 27.412 98.2646 27.836C97.4944 28.252 96.5598 28.46 95.4608 28.46H88ZM90.5511 26.072H95.0757C95.6453 26.072 96.1547 25.964 96.6039 25.748C97.0612 25.532 97.4182 25.224 97.6749 24.824C97.9397 24.416 98.072 23.932 98.072 23.372C98.072 22.852 97.9557 22.384 97.7231 21.968C97.4984 21.544 97.1695 21.212 96.7363 20.972C96.3111 20.724 95.8097 20.6 95.2321 20.6H90.5511V26.072ZM90.5511 18.236H94.7749C95.2401 18.236 95.6573 18.144 96.0263 17.96C96.4034 17.768 96.7002 17.496 96.9168 17.144C97.1414 16.784 97.2538 16.352 97.2538 15.848C97.2538 15.176 97.0291 14.624 96.5799 14.192C96.1306 13.76 95.529 13.544 94.7749 13.544H90.5511V18.236Z" fill="#666666"/>
    <path d="M108.686 28.82C107.386 28.82 106.259 28.528 105.304 27.944C104.349 27.36 103.611 26.556 103.09 25.532C102.577 24.5 102.32 23.312 102.32 21.968C102.32 20.616 102.585 19.428 103.114 18.404C103.644 17.372 104.386 16.572 105.34 16.004C106.295 15.428 107.41 15.14 108.686 15.14C109.985 15.14 111.112 15.432 112.067 16.016C113.022 16.6 113.76 17.404 114.281 18.428C114.803 19.452 115.063 20.632 115.063 21.968C115.063 23.32 114.799 24.512 114.269 25.544C113.748 26.568 113.01 27.372 112.055 27.956C111.1 28.532 109.977 28.82 108.686 28.82ZM108.686 26.456C109.929 26.456 110.856 26.04 111.465 25.208C112.083 24.368 112.392 23.288 112.392 21.968C112.392 20.616 112.079 19.536 111.453 18.728C110.836 17.912 109.913 17.504 108.686 17.504C107.843 17.504 107.149 17.696 106.604 18.08C106.058 18.456 105.653 18.98 105.388 19.652C105.124 20.316 104.991 21.088 104.991 21.968C104.991 23.328 105.304 24.416 105.93 25.232C106.556 26.048 107.474 26.456 108.686 26.456Z" fill="#666666"/>
    <path d="M123.351 28.82C122.052 28.82 120.925 28.528 119.97 27.944C119.015 27.36 118.277 26.556 117.756 25.532C117.242 24.5 116.986 23.312 116.986 21.968C116.986 20.616 117.25 19.428 117.78 18.404C118.309 17.372 119.051 16.572 120.006 16.004C120.961 15.428 122.076 15.14 123.351 15.14C124.651 15.14 125.778 15.432 126.733 16.016C127.687 16.6 128.425 17.404 128.947 18.428C129.468 19.452 129.729 20.632 129.729 21.968C129.729 23.32 129.464 24.512 128.935 25.544C128.413 26.568 127.675 27.372 126.721 27.956C125.766 28.532 124.643 28.82 123.351 28.82ZM123.351 26.456C124.595 26.456 125.521 26.04 126.131 25.208C126.749 24.368 127.058 23.288 127.058 21.968C127.058 20.616 126.745 19.536 126.119 18.728C125.501 17.912 124.579 17.504 123.351 17.504C122.509 17.504 121.815 17.696 121.27 18.08C120.724 18.456 120.319 18.98 120.054 19.652C119.789 20.316 119.657 21.088 119.657 21.968C119.657 23.328 119.97 24.416 120.596 25.232C121.221 26.048 122.14 26.456 123.351 26.456Z" fill="#666666"/>
    <path d="M132.361 28.46L132.373 11.18H134.925V21.74L140.027 15.5H143.228L137.837 21.98L143.781 28.46H140.364L134.925 22.22V28.46H132.361Z" fill="#666666"/>
    <path d="M149.729 28.808C148.149 28.808 146.861 28.46 145.867 27.764C144.872 27.068 144.262 26.088 144.037 24.824L146.613 24.428C146.773 25.1 147.142 25.632 147.72 26.024C148.305 26.408 149.031 26.6 149.898 26.6C150.684 26.6 151.298 26.44 151.739 26.12C152.188 25.8 152.413 25.36 152.413 24.8C152.413 24.472 152.333 24.208 152.172 24.008C152.02 23.8 151.695 23.604 151.197 23.42C150.7 23.236 149.942 23.008 148.923 22.736C147.808 22.448 146.922 22.14 146.264 21.812C145.614 21.476 145.149 21.088 144.868 20.648C144.595 20.2 144.459 19.66 144.459 19.028C144.459 18.244 144.667 17.56 145.084 16.976C145.502 16.392 146.087 15.94 146.841 15.62C147.603 15.3 148.494 15.14 149.513 15.14C150.508 15.14 151.394 15.296 152.172 15.608C152.95 15.92 153.58 16.364 154.061 16.94C154.543 17.508 154.832 18.176 154.928 18.944L152.353 19.412C152.264 18.788 151.972 18.296 151.474 17.936C150.977 17.576 150.331 17.38 149.537 17.348C148.775 17.316 148.157 17.444 147.684 17.732C147.21 18.012 146.974 18.4 146.974 18.896C146.974 19.184 147.062 19.428 147.238 19.628C147.423 19.828 147.776 20.02 148.297 20.204C148.819 20.388 149.589 20.608 150.608 20.864C151.699 21.144 152.565 21.456 153.207 21.8C153.849 22.136 154.306 22.54 154.579 23.012C154.86 23.476 155 24.04 155 24.704C155 25.984 154.531 26.988 153.592 27.716C152.661 28.444 151.374 28.808 149.729 28.808Z" fill="#666666"/>
</svg>